<?xml version="1.0" encoding="UTF-8"?>
<svg xmlns="http://www.w3.org/2000/svg" xmlns:xlink="http://www.w3.org/1999/xlink" width="20px" height="20px" viewBox="0 0 20 20" version="1.1">
<g id="surface1">
<path style=" stroke:none;fill-rule:nonzero;fill:rgb(59.215686%,59.215686%,59.215686%);fill-opacity:1;" d="M 19.707031 10 C 19.707031 15.359375 15.359375 19.707031 10 19.707031 C 4.640625 19.707031 0.292969 15.359375 0.292969 10 C 0.292969 4.640625 4.640625 0.292969 10 0.292969 C 15.359375 0.292969 19.707031 4.640625 19.707031 10 Z M 19.707031 10 "/>
<path style=" stroke:none;fill-rule:nonzero;fill:rgb(56.078431%,54.509804%,54.509804%);fill-opacity:1;" d="M 13.785156 18.171875 C 13.675781 18.171875 13.574219 18.113281 13.523438 18.011719 C 13.449219 17.867188 13.507812 17.691406 13.652344 17.617188 C 14.484375 17.195312 15.246094 16.582031 15.914062 15.796875 C 16.15625 15.515625 16.382812 15.214844 16.589844 14.894531 C 16.679688 14.757812 16.863281 14.71875 17 14.808594 C 17.132812 14.898438 17.171875 15.078125 17.082031 15.214844 C 16.859375 15.554688 16.617188 15.878906 16.363281 16.179688 C 15.644531 17.023438 14.820312 17.683594 13.917969 18.140625 C 13.875 18.164062 13.828125 18.171875 13.785156 18.171875 Z M 13.785156 18.171875 "/>
<path style=" stroke:none;fill-rule:nonzero;fill:rgb(64.705882%,40%,23.529412%);fill-opacity:1;" d="M 16.167969 6.421875 C 15.714844 7.910156 15.273438 8.265625 14.546875 8.039062 C 13.695312 7.777344 12.679688 7.195312 12.929688 6.421875 C 13.207031 5.574219 13.566406 4.621094 14.546875 4.804688 C 15.542969 4.992188 16.425781 5.566406 16.167969 6.421875 Z M 16.167969 6.421875 "/>
<path style=" stroke:none;fill-rule:nonzero;fill:rgb(64.705882%,40%,23.529412%);fill-opacity:1;" d="M 6.222656 15.195312 C 4.726562 15.609375 4.191406 15.429688 3.988281 14.699219 C 3.75 13.839844 3.695312 12.667969 4.484375 12.464844 C 5.347656 12.242188 6.34375 12.03125 6.714844 12.960938 C 7.09375 13.898438 7.082031 14.953125 6.222656 15.195312 Z M 6.222656 15.195312 "/>
<path style=" stroke:none;fill-rule:nonzero;fill:rgb(64.705882%,40%,23.529412%);fill-opacity:1;" d="M 15.453125 14.597656 C 14.449219 15.785156 13.902344 15.933594 13.328125 15.445312 C 12.648438 14.863281 11.945312 13.925781 12.484375 13.316406 C 13.074219 12.648438 13.78125 11.914062 14.609375 12.472656 C 15.449219 13.039062 16.03125 13.917969 15.453125 14.597656 Z M 15.453125 14.597656 "/>
<path style=" stroke:none;fill-rule:nonzero;fill:rgb(64.705882%,40%,23.529412%);fill-opacity:1;" d="M 5.503906 6.40625 C 4.386719 5.328125 4.269531 4.773438 4.796875 4.230469 C 5.417969 3.585938 6.398438 2.945312 6.972656 3.519531 C 7.605469 4.152344 8.292969 4.90625 7.679688 5.695312 C 7.0625 6.496094 6.148438 7.023438 5.503906 6.40625 Z M 5.503906 6.40625 "/>
<path style=" stroke:none;fill-rule:nonzero;fill:rgb(64.705882%,40%,23.529412%);fill-opacity:1;" d="M 10.089844 15.644531 C 10.089844 15.96875 9.828125 16.230469 9.503906 16.230469 C 9.179688 16.230469 8.914062 15.96875 8.914062 15.644531 C 8.914062 15.316406 9.179688 15.054688 9.503906 15.054688 C 9.828125 15.054688 10.089844 15.316406 10.089844 15.644531 Z M 10.089844 15.644531 "/>
<path style=" stroke:none;fill-rule:nonzero;fill:rgb(64.705882%,40%,23.529412%);fill-opacity:1;" d="M 16.996094 10.585938 C 16.996094 10.910156 16.730469 11.175781 16.40625 11.175781 C 16.082031 11.175781 15.820312 10.910156 15.820312 10.585938 C 15.820312 10.261719 16.082031 10 16.40625 10 C 16.730469 10 16.996094 10.261719 16.996094 10.585938 Z M 16.996094 10.585938 "/>
<path style=" stroke:none;fill-rule:nonzero;fill:rgb(64.705882%,40%,23.529412%);fill-opacity:1;" d="M 12.597656 3.507812 C 12.597656 3.832031 12.335938 4.097656 12.011719 4.097656 C 11.683594 4.097656 11.421875 3.832031 11.421875 3.507812 C 11.421875 3.183594 11.683594 2.921875 12.011719 2.921875 C 12.335938 2.921875 12.597656 3.183594 12.597656 3.507812 Z M 12.597656 3.507812 "/>
<path style=" stroke:none;fill-rule:nonzero;fill:rgb(56.078431%,54.509804%,54.509804%);fill-opacity:1;" d="M 6.128906 15.21875 C 4.703125 15.601562 4.183594 15.414062 3.988281 14.699219 C 3.75 13.839844 3.695312 12.667969 4.484375 12.464844 C 4.617188 12.429688 4.757812 12.394531 4.898438 12.367188 C 4.710938 11.609375 4.609375 10.816406 4.609375 10 C 4.609375 8.671875 4.875 7.410156 5.355469 6.257812 C 4.378906 5.273438 4.296875 4.746094 4.796875 4.230469 C 5.417969 3.585938 6.398438 2.945312 6.972656 3.519531 C 6.992188 3.539062 7.011719 3.5625 7.035156 3.582031 C 8.359375 2.082031 10.136719 0.992188 12.15625 0.535156 C 11.464844 0.378906 10.742188 0.292969 10 0.292969 C 4.640625 0.292969 0.292969 4.640625 0.292969 10 C 0.292969 15.359375 4.640625 19.707031 10 19.707031 C 10.742188 19.707031 11.464844 19.621094 12.15625 19.464844 C 9.632812 18.890625 7.480469 17.335938 6.128906 15.21875 Z M 6.128906 15.21875 "/>
<path style=" stroke:none;fill-rule:nonzero;fill:rgb(53.72549%,33.72549%,22.745098%);fill-opacity:1;" d="M 3.636719 9.789062 C 3.636719 10.117188 3.375 10.378906 3.050781 10.378906 C 2.726562 10.378906 2.460938 10.117188 2.460938 9.789062 C 2.460938 9.464844 2.726562 9.203125 3.050781 9.203125 C 3.375 9.203125 3.636719 9.464844 3.636719 9.789062 Z M 3.636719 9.789062 "/>
<path style=" stroke:none;fill-rule:nonzero;fill:rgb(64.705882%,40%,23.529412%);fill-opacity:1;" d="M 16.167969 6.421875 C 15.714844 7.910156 15.273438 8.265625 14.546875 8.039062 C 13.695312 7.777344 12.679688 7.195312 12.929688 6.421875 C 13.207031 5.574219 13.566406 4.621094 14.546875 4.804688 C 15.542969 4.992188 16.425781 5.566406 16.167969 6.421875 Z M 16.167969 6.421875 "/>
<path style=" stroke:none;fill-rule:nonzero;fill:rgb(53.72549%,33.72549%,22.745098%);fill-opacity:1;" d="M 3.988281 14.699219 C 4.183594 15.414062 4.703125 15.601562 6.128906 15.21875 C 5.574219 14.351562 5.15625 13.390625 4.898438 12.367188 C 4.757812 12.394531 4.617188 12.429688 4.484375 12.464844 C 3.695312 12.667969 3.75 13.839844 3.988281 14.699219 Z M 3.988281 14.699219 "/>
<path style=" stroke:none;fill-rule:nonzero;fill:rgb(53.72549%,33.72549%,22.745098%);fill-opacity:1;" d="M 4.796875 4.230469 C 4.296875 4.746094 4.378906 5.273438 5.355469 6.257812 C 5.769531 5.273438 6.339844 4.371094 7.035156 3.582031 C 7.011719 3.5625 6.992188 3.542969 6.972656 3.519531 C 6.398438 2.945312 5.417969 3.585938 4.796875 4.230469 Z M 4.796875 4.230469 "/>
<path style=" stroke:none;fill-rule:nonzero;fill:rgb(0%,0%,0%);fill-opacity:1;" d="M 13.09375 10.574219 C 12.933594 10.574219 12.800781 10.441406 12.800781 10.277344 L 12.800781 9.789062 C 12.800781 9.628906 12.933594 9.496094 13.09375 9.496094 C 13.257812 9.496094 13.386719 9.628906 13.386719 9.789062 L 13.386719 10.277344 C 13.386719 10.441406 13.257812 10.574219 13.09375 10.574219 Z M 13.09375 10.574219 "/>
<path style=" stroke:none;fill-rule:nonzero;fill:rgb(0%,0%,0%);fill-opacity:1;" d="M 6.769531 10.574219 C 6.605469 10.574219 6.472656 10.441406 6.472656 10.277344 L 6.472656 9.789062 C 6.472656 9.628906 6.605469 9.496094 6.769531 9.496094 C 6.929688 9.496094 7.0625 9.628906 7.0625 9.789062 L 7.0625 10.277344 C 7.0625 10.441406 6.929688 10.574219 6.769531 10.574219 Z M 6.769531 10.574219 "/>
<path style=" stroke:none;fill-rule:nonzero;fill:rgb(0%,0%,0%);fill-opacity:1;" d="M 14.910156 8.394531 C 14.769531 8.394531 14.621094 8.371094 14.460938 8.320312 C 14.054688 8.195312 13.074219 7.832031 12.722656 7.152344 C 12.585938 6.890625 12.5625 6.605469 12.652344 6.332031 C 12.800781 5.878906 12.96875 5.40625 13.242188 5.046875 C 13.59375 4.589844 14.050781 4.414062 14.601562 4.515625 C 15.414062 4.667969 16.042969 5.027344 16.328125 5.503906 C 16.515625 5.808594 16.554688 6.15625 16.449219 6.507812 C 16.136719 7.523438 15.824219 8.050781 15.402344 8.277344 C 15.25 8.355469 15.089844 8.394531 14.910156 8.394531 Z M 14.316406 5.078125 C 13.789062 5.078125 13.511719 5.59375 13.210938 6.515625 C 13.167969 6.640625 13.179688 6.757812 13.242188 6.882812 C 13.414062 7.210938 13.945312 7.546875 14.636719 7.761719 C 14.90625 7.84375 15.039062 7.800781 15.125 7.757812 C 15.386719 7.617188 15.636719 7.152344 15.886719 6.335938 C 15.945312 6.144531 15.925781 5.96875 15.828125 5.808594 C 15.632812 5.484375 15.121094 5.210938 14.496094 5.09375 C 14.433594 5.082031 14.375 5.078125 14.316406 5.078125 Z M 14.316406 5.078125 "/>
<path style=" stroke:none;fill-rule:nonzero;fill:rgb(0%,0%,0%);fill-opacity:1;" d="M 4.964844 15.707031 C 4.671875 15.707031 4.441406 15.652344 4.25 15.546875 C 3.984375 15.394531 3.804688 15.144531 3.707031 14.777344 C 3.699219 14.75 3.691406 14.71875 3.683594 14.691406 C 3.640625 14.535156 3.738281 14.375 3.894531 14.332031 C 4.050781 14.292969 4.210938 14.386719 4.25 14.546875 C 4.257812 14.570312 4.265625 14.597656 4.273438 14.621094 C 4.347656 14.894531 4.453125 14.984375 4.539062 15.035156 C 4.796875 15.179688 5.324219 15.140625 6.144531 14.910156 C 6.339844 14.855469 6.472656 14.746094 6.558594 14.578125 C 6.726562 14.238281 6.679688 13.660156 6.445312 13.070312 C 6.199219 12.457031 5.589844 12.484375 4.554688 12.75 C 4.472656 12.773438 4.214844 12.839844 4.144531 13.367188 C 4.121094 13.53125 3.976562 13.644531 3.8125 13.621094 C 3.652344 13.601562 3.539062 13.453125 3.5625 13.292969 C 3.640625 12.695312 3.941406 12.300781 4.410156 12.179688 C 4.871094 12.0625 5.359375 11.949219 5.808594 11.988281 C 6.382812 12.039062 6.78125 12.328125 6.988281 12.851562 C 7.296875 13.613281 7.332031 14.339844 7.085938 14.835938 C 6.929688 15.15625 6.65625 15.378906 6.300781 15.476562 C 5.746094 15.632812 5.3125 15.707031 4.964844 15.707031 Z M 4.964844 15.707031 "/>
<path style=" stroke:none;fill-rule:nonzero;fill:rgb(0%,0%,0%);fill-opacity:1;" d="M 13.933594 16 C 13.660156 16 13.398438 15.890625 13.136719 15.667969 C 12.8125 15.390625 12.054688 14.667969 12 13.90625 C 11.980469 13.609375 12.070312 13.339844 12.261719 13.125 C 12.578125 12.765625 12.921875 12.398438 13.316406 12.179688 C 13.816406 11.898438 14.308594 11.914062 14.773438 12.230469 C 15.457031 12.6875 15.890625 13.269531 15.96875 13.820312 C 16.015625 14.171875 15.917969 14.507812 15.679688 14.789062 C 14.992188 15.597656 14.496094 15.960938 14.019531 15.996094 C 13.992188 16 13.960938 16 13.933594 16 Z M 14.015625 12.570312 C 13.621094 12.570312 13.222656 12.925781 12.703125 13.511719 C 12.617188 13.613281 12.578125 13.722656 12.589844 13.863281 C 12.613281 14.234375 12.972656 14.753906 13.519531 15.21875 C 13.734375 15.40625 13.875 15.417969 13.972656 15.410156 C 14.265625 15.386719 14.679688 15.058594 15.230469 14.410156 C 15.359375 14.253906 15.410156 14.089844 15.386719 13.898438 C 15.335938 13.527344 14.972656 13.074219 14.445312 12.71875 C 14.300781 12.617188 14.15625 12.570312 14.015625 12.570312 Z M 14.015625 12.570312 "/>
<path style=" stroke:none;fill-rule:nonzero;fill:rgb(0%,0%,0%);fill-opacity:1;" d="M 6.15625 6.972656 C 5.835938 6.972656 5.542969 6.847656 5.300781 6.617188 C 4.539062 5.882812 4.210938 5.363281 4.203125 4.882812 C 4.195312 4.578125 4.320312 4.296875 4.585938 4.023438 C 4.882812 3.71875 5.652344 3.007812 6.417969 3.003906 C 6.710938 3 6.976562 3.109375 7.183594 3.3125 C 7.519531 3.652344 7.863281 4.015625 8.058594 4.421875 C 8.304688 4.941406 8.257812 5.429688 7.914062 5.875 C 7.410156 6.527344 6.804688 6.925781 6.25 6.96875 C 6.21875 6.96875 6.1875 6.972656 6.15625 6.972656 Z M 5.710938 6.191406 C 5.855469 6.332031 6.019531 6.394531 6.207031 6.378906 C 6.585938 6.351562 7.058594 6.023438 7.449219 5.515625 C 7.851562 4.996094 7.519531 4.484375 6.765625 3.730469 C 6.671875 3.632812 6.5625 3.589844 6.421875 3.589844 C 6.050781 3.59375 5.511719 3.917969 5.007812 4.433594 C 4.8125 4.636719 4.789062 4.773438 4.789062 4.871094 C 4.792969 5.167969 5.09375 5.601562 5.710938 6.191406 Z M 5.710938 6.191406 "/>
<path style=" stroke:none;fill-rule:nonzero;fill:rgb(0%,0%,0%);fill-opacity:1;" d="M 9.503906 16.523438 C 9.015625 16.523438 8.621094 16.128906 8.621094 15.644531 C 8.621094 15.15625 9.015625 14.761719 9.503906 14.761719 C 9.988281 14.761719 10.386719 15.15625 10.386719 15.644531 C 10.386719 16.128906 9.988281 16.523438 9.503906 16.523438 Z M 9.503906 15.347656 C 9.339844 15.347656 9.210938 15.480469 9.210938 15.644531 C 9.210938 15.804688 9.339844 15.9375 9.503906 15.9375 C 9.664062 15.9375 9.796875 15.804688 9.796875 15.644531 C 9.796875 15.480469 9.664062 15.347656 9.503906 15.347656 Z M 9.503906 15.347656 "/>
<path style=" stroke:none;fill-rule:nonzero;fill:rgb(0%,0%,0%);fill-opacity:1;" d="M 16.40625 11.46875 C 15.921875 11.46875 15.523438 11.074219 15.523438 10.585938 C 15.523438 10.101562 15.921875 9.703125 16.40625 9.703125 C 16.894531 9.703125 17.289062 10.101562 17.289062 10.585938 C 17.289062 11.074219 16.894531 11.46875 16.40625 11.46875 Z M 16.40625 10.292969 C 16.246094 10.292969 16.113281 10.425781 16.113281 10.585938 C 16.113281 10.75 16.246094 10.878906 16.40625 10.878906 C 16.570312 10.878906 16.699219 10.75 16.699219 10.585938 C 16.699219 10.425781 16.570312 10.292969 16.40625 10.292969 Z M 16.40625 10.292969 "/>
<path style=" stroke:none;fill-rule:nonzero;fill:rgb(0%,0%,0%);fill-opacity:1;" d="M 3.050781 10.671875 C 2.5625 10.671875 2.167969 10.277344 2.167969 9.789062 C 2.167969 9.304688 2.5625 8.90625 3.050781 8.90625 C 3.535156 8.90625 3.933594 9.304688 3.933594 9.789062 C 3.933594 10.277344 3.535156 10.671875 3.050781 10.671875 Z M 3.050781 9.496094 C 2.886719 9.496094 2.753906 9.628906 2.753906 9.789062 C 2.753906 9.953125 2.886719 10.085938 3.050781 10.085938 C 3.210938 10.085938 3.34375 9.953125 3.34375 9.789062 C 3.34375 9.628906 3.210938 9.496094 3.050781 9.496094 Z M 3.050781 9.496094 "/>
<path style=" stroke:none;fill-rule:nonzero;fill:rgb(0%,0%,0%);fill-opacity:1;" d="M 12.011719 4.390625 C 11.523438 4.390625 11.128906 3.996094 11.128906 3.507812 C 11.128906 3.023438 11.523438 2.625 12.011719 2.625 C 12.496094 2.625 12.890625 3.023438 12.890625 3.507812 C 12.890625 3.996094 12.496094 4.390625 12.011719 4.390625 Z M 12.011719 3.214844 C 11.847656 3.214844 11.714844 3.347656 11.714844 3.507812 C 11.714844 3.671875 11.847656 3.800781 12.011719 3.800781 C 12.171875 3.800781 12.304688 3.671875 12.304688 3.507812 C 12.304688 3.347656 12.171875 3.214844 12.011719 3.214844 Z M 12.011719 3.214844 "/>
<path style=" stroke:none;fill-rule:nonzero;fill:rgb(0%,0%,0%);fill-opacity:1;" d="M 9.929688 10.878906 C 9.550781 10.878906 9.171875 10.757812 8.851562 10.511719 C 8.722656 10.410156 8.699219 10.226562 8.800781 10.097656 C 8.898438 9.96875 9.085938 9.945312 9.214844 10.046875 C 9.636719 10.375 10.226562 10.375 10.648438 10.046875 C 10.777344 9.945312 10.964844 9.96875 11.0625 10.097656 C 11.160156 10.226562 11.140625 10.410156 11.011719 10.511719 C 10.691406 10.757812 10.3125 10.878906 9.929688 10.878906 Z M 9.929688 10.878906 "/>
<path style=" stroke:none;fill-rule:nonzero;fill:rgb(0%,0%,0%);fill-opacity:1;" d="M 10 20 C 7.328125 20 4.816406 18.960938 2.929688 17.070312 C 1.039062 15.183594 0 12.671875 0 10 C 0 7.328125 1.039062 4.816406 2.929688 2.929688 C 4.816406 1.039062 7.328125 0 10 0 C 12.671875 0 15.183594 1.039062 17.070312 2.929688 C 18.960938 4.816406 20 7.328125 20 10 C 20 12.671875 18.960938 15.183594 17.070312 17.070312 C 15.183594 18.960938 12.671875 20 10 20 Z M 10 0.589844 C 4.808594 0.589844 0.589844 4.808594 0.589844 10 C 0.589844 15.191406 4.808594 19.410156 10 19.410156 C 15.191406 19.410156 19.410156 15.191406 19.410156 10 C 19.410156 4.808594 15.191406 0.589844 10 0.589844 Z M 10 0.589844 "/>
</g>
</svg>
