<?xml version="1.0" encoding="UTF-8"?>
<svg xmlns="http://www.w3.org/2000/svg" xmlns:xlink="http://www.w3.org/1999/xlink" width="32px" height="32px" viewBox="0 0 32 32" version="1.1">
<g id="surface1">
<path style=" stroke:none;fill-rule:nonzero;fill:rgb(100%,72.156863%,39.215686%);fill-opacity:1;" d="M 31.53125 16 C 31.53125 24.578125 24.578125 31.53125 16 31.53125 C 7.421875 31.53125 0.46875 24.578125 0.46875 16 C 0.46875 7.421875 7.421875 0.46875 16 0.46875 C 24.578125 0.46875 31.53125 7.421875 31.53125 16 Z M 31.53125 16 "/>
<path style=" stroke:none;fill-rule:nonzero;fill:rgb(95.686275%,65.098039%,31.764706%);fill-opacity:1;" d="M 22.054688 29.078125 C 21.882812 29.078125 21.71875 28.980469 21.636719 28.820312 C 21.515625 28.585938 21.609375 28.304688 21.84375 28.1875 C 23.175781 27.511719 24.394531 26.53125 25.464844 25.277344 C 25.847656 24.828125 26.210938 24.339844 26.546875 23.828125 C 26.6875 23.613281 26.980469 23.550781 27.199219 23.695312 C 27.414062 23.835938 27.476562 24.128906 27.332031 24.34375 C 26.976562 24.890625 26.589844 25.410156 26.179688 25.886719 C 25.027344 27.238281 23.710938 28.292969 22.265625 29.027344 C 22.199219 29.058594 22.125 29.078125 22.054688 29.078125 Z M 22.054688 29.078125 "/>
<path style=" stroke:none;fill-rule:nonzero;fill:rgb(64.705882%,40%,23.529412%);fill-opacity:1;" d="M 25.867188 10.277344 C 25.140625 12.65625 24.433594 13.222656 23.277344 12.867188 C 21.910156 12.445312 20.285156 11.511719 20.6875 10.277344 C 21.132812 8.917969 21.707031 7.394531 23.277344 7.6875 C 24.867188 7.988281 26.285156 8.910156 25.867188 10.277344 Z M 25.867188 10.277344 "/>
<path style=" stroke:none;fill-rule:nonzero;fill:rgb(64.705882%,40%,23.529412%);fill-opacity:1;" d="M 9.957031 24.308594 C 7.5625 24.976562 6.703125 24.6875 6.382812 23.519531 C 6.003906 22.140625 5.914062 20.269531 7.171875 19.945312 C 8.554688 19.589844 10.152344 19.253906 10.746094 20.734375 C 11.351562 22.238281 11.335938 23.925781 9.957031 24.308594 Z M 9.957031 24.308594 "/>
<path style=" stroke:none;fill-rule:nonzero;fill:rgb(64.705882%,40%,23.529412%);fill-opacity:1;" d="M 24.726562 23.359375 C 23.121094 25.253906 22.246094 25.496094 21.324219 24.710938 C 20.238281 23.78125 19.113281 22.28125 19.972656 21.308594 C 20.917969 20.238281 22.050781 19.0625 23.375 19.957031 C 24.71875 20.859375 25.652344 22.269531 24.726562 23.359375 Z M 24.726562 23.359375 "/>
<path style=" stroke:none;fill-rule:nonzero;fill:rgb(64.705882%,40%,23.529412%);fill-opacity:1;" d="M 8.808594 10.246094 C 7.019531 8.523438 6.832031 7.636719 7.675781 6.765625 C 8.671875 5.738281 10.238281 4.714844 11.15625 5.632812 C 12.167969 6.644531 13.265625 7.847656 12.289062 9.113281 C 11.300781 10.394531 9.839844 11.238281 8.808594 10.246094 Z M 8.808594 10.246094 "/>
<path style=" stroke:none;fill-rule:nonzero;fill:rgb(64.705882%,40%,23.529412%);fill-opacity:1;" d="M 16.148438 25.027344 C 16.148438 25.546875 15.726562 25.96875 15.207031 25.96875 C 14.6875 25.96875 14.265625 25.546875 14.265625 25.027344 C 14.265625 24.507812 14.6875 24.085938 15.207031 24.085938 C 15.726562 24.085938 16.148438 24.507812 16.148438 25.027344 Z M 16.148438 25.027344 "/>
<path style=" stroke:none;fill-rule:nonzero;fill:rgb(64.705882%,40%,23.529412%);fill-opacity:1;" d="M 27.191406 16.9375 C 27.191406 17.457031 26.769531 17.878906 26.25 17.878906 C 25.730469 17.878906 25.308594 17.457031 25.308594 16.9375 C 25.308594 16.417969 25.730469 15.996094 26.25 15.996094 C 26.769531 15.996094 27.191406 16.417969 27.191406 16.9375 Z M 27.191406 16.9375 "/>
<path style=" stroke:none;fill-rule:nonzero;fill:rgb(64.705882%,40%,23.529412%);fill-opacity:1;" d="M 20.15625 5.613281 C 20.15625 6.132812 19.734375 6.554688 19.214844 6.554688 C 18.695312 6.554688 18.273438 6.132812 18.273438 5.613281 C 18.273438 5.09375 18.695312 4.671875 19.214844 4.671875 C 19.734375 4.671875 20.15625 5.09375 20.15625 5.613281 Z M 20.15625 5.613281 "/>
<path style=" stroke:none;fill-rule:nonzero;fill:rgb(95.686275%,65.098039%,31.764706%);fill-opacity:1;" d="M 9.808594 24.351562 C 7.527344 24.964844 6.695312 24.664062 6.382812 23.519531 C 6.003906 22.140625 5.914062 20.269531 7.171875 19.945312 C 7.390625 19.890625 7.613281 19.835938 7.839844 19.785156 C 7.535156 18.574219 7.371094 17.304688 7.371094 16 C 7.371094 13.878906 7.800781 11.855469 8.570312 10.011719 C 7.003906 8.441406 6.871094 7.59375 7.675781 6.765625 C 8.671875 5.738281 10.238281 4.714844 11.15625 5.632812 C 11.191406 5.664062 11.222656 5.699219 11.253906 5.730469 C 13.371094 3.332031 16.21875 1.589844 19.449219 0.855469 C 18.339844 0.605469 17.1875 0.46875 16 0.46875 C 7.421875 0.46875 0.46875 7.421875 0.46875 16 C 0.46875 24.578125 7.421875 31.53125 16 31.53125 C 17.1875 31.53125 18.339844 31.394531 19.449219 31.144531 C 15.410156 30.226562 11.972656 27.738281 9.808594 24.351562 Z M 9.808594 24.351562 "/>
<path style=" stroke:none;fill-rule:nonzero;fill:rgb(53.72549%,33.72549%,22.745098%);fill-opacity:1;" d="M 5.820312 15.664062 C 5.820312 16.183594 5.398438 16.605469 4.878906 16.605469 C 4.359375 16.605469 3.9375 16.183594 3.9375 15.664062 C 3.9375 15.144531 4.359375 14.722656 4.878906 14.722656 C 5.398438 14.722656 5.820312 15.144531 5.820312 15.664062 Z M 5.820312 15.664062 "/>
<path style=" stroke:none;fill-rule:nonzero;fill:rgb(64.705882%,40%,23.529412%);fill-opacity:1;" d="M 25.867188 10.277344 C 25.140625 12.65625 24.433594 13.222656 23.277344 12.867188 C 21.910156 12.445312 20.285156 11.511719 20.6875 10.277344 C 21.132812 8.917969 21.707031 7.394531 23.277344 7.6875 C 24.867188 7.988281 26.285156 8.910156 25.867188 10.277344 Z M 25.867188 10.277344 "/>
<path style=" stroke:none;fill-rule:nonzero;fill:rgb(53.72549%,33.72549%,22.745098%);fill-opacity:1;" d="M 6.382812 23.519531 C 6.695312 24.664062 7.527344 24.964844 9.808594 24.351562 C 8.921875 22.964844 8.25 21.425781 7.839844 19.785156 C 7.613281 19.835938 7.390625 19.890625 7.171875 19.945312 C 5.914062 20.269531 6.003906 22.140625 6.382812 23.519531 Z M 6.382812 23.519531 "/>
<path style=" stroke:none;fill-rule:nonzero;fill:rgb(53.72549%,33.72549%,22.745098%);fill-opacity:1;" d="M 7.675781 6.765625 C 6.871094 7.59375 7.003906 8.441406 8.570312 10.011719 C 9.230469 8.4375 10.140625 6.992188 11.253906 5.730469 C 11.222656 5.699219 11.191406 5.664062 11.15625 5.632812 C 10.238281 4.714844 8.671875 5.738281 7.675781 6.765625 Z M 7.675781 6.765625 "/>
<path style=" stroke:none;fill-rule:nonzero;fill:rgb(0%,0%,0%);fill-opacity:1;" d="M 20.949219 16.917969 C 20.691406 16.917969 20.480469 16.707031 20.480469 16.445312 L 20.480469 15.664062 C 20.480469 15.40625 20.691406 15.195312 20.949219 15.195312 C 21.210938 15.195312 21.421875 15.40625 21.421875 15.664062 L 21.421875 16.445312 C 21.421875 16.707031 21.210938 16.917969 20.949219 16.917969 Z M 20.949219 16.917969 "/>
<path style=" stroke:none;fill-rule:nonzero;fill:rgb(0%,0%,0%);fill-opacity:1;" d="M 10.828125 16.917969 C 10.570312 16.917969 10.359375 16.707031 10.359375 16.445312 L 10.359375 15.664062 C 10.359375 15.40625 10.570312 15.195312 10.828125 15.195312 C 11.089844 15.195312 11.300781 15.40625 11.300781 15.664062 L 11.300781 16.445312 C 11.300781 16.707031 11.089844 16.917969 10.828125 16.917969 Z M 10.828125 16.917969 "/>
<path style=" stroke:none;fill-rule:nonzero;fill:rgb(0%,0%,0%);fill-opacity:1;" d="M 23.855469 13.433594 C 23.632812 13.433594 23.394531 13.394531 23.140625 13.316406 C 22.488281 13.113281 20.917969 12.53125 20.355469 11.445312 C 20.136719 11.023438 20.097656 10.570312 20.242188 10.128906 C 20.480469 9.40625 20.746094 8.648438 21.1875 8.074219 C 21.75 7.34375 22.480469 7.058594 23.363281 7.226562 C 24.660156 7.46875 25.667969 8.046875 26.128906 8.804688 C 26.421875 9.292969 26.488281 9.851562 26.316406 10.414062 C 25.820312 12.035156 25.320312 12.882812 24.640625 13.242188 C 24.402344 13.371094 24.140625 13.433594 23.855469 13.433594 Z M 22.910156 8.121094 C 22.058594 8.121094 21.617188 8.953125 21.136719 10.421875 C 21.070312 10.625 21.085938 10.8125 21.191406 11.011719 C 21.460938 11.539062 22.316406 12.074219 23.417969 12.414062 C 23.851562 12.550781 24.0625 12.484375 24.203125 12.410156 C 24.621094 12.1875 25.019531 11.445312 25.417969 10.140625 C 25.511719 9.828125 25.480469 9.554688 25.320312 9.292969 C 25.011719 8.777344 24.191406 8.339844 23.191406 8.152344 C 23.09375 8.132812 23 8.121094 22.910156 8.121094 Z M 22.910156 8.121094 "/>
<path style=" stroke:none;fill-rule:nonzero;fill:rgb(0%,0%,0%);fill-opacity:1;" d="M 7.945312 25.132812 C 7.476562 25.132812 7.105469 25.046875 6.800781 24.875 C 6.375 24.632812 6.089844 24.230469 5.929688 23.644531 C 5.914062 23.597656 5.902344 23.550781 5.890625 23.503906 C 5.828125 23.253906 5.980469 22.996094 6.230469 22.933594 C 6.480469 22.867188 6.738281 23.019531 6.804688 23.273438 C 6.8125 23.3125 6.824219 23.355469 6.835938 23.394531 C 6.957031 23.832031 7.128906 23.976562 7.261719 24.054688 C 7.675781 24.289062 8.515625 24.222656 9.832031 23.855469 C 10.140625 23.769531 10.359375 23.59375 10.492188 23.320312 C 10.761719 22.78125 10.691406 21.859375 10.308594 20.910156 C 9.917969 19.929688 8.945312 19.976562 7.289062 20.402344 C 7.152344 20.4375 6.742188 20.542969 6.628906 21.390625 C 6.597656 21.648438 6.359375 21.828125 6.101562 21.796875 C 5.84375 21.761719 5.664062 21.523438 5.699219 21.269531 C 5.824219 20.316406 6.304688 19.683594 7.054688 19.488281 C 7.792969 19.300781 8.578125 19.121094 9.296875 19.183594 C 10.214844 19.261719 10.847656 19.726562 11.183594 20.558594 C 11.675781 21.785156 11.730469 22.941406 11.335938 23.738281 C 11.085938 24.25 10.652344 24.605469 10.082031 24.765625 C 9.195312 25.011719 8.503906 25.132812 7.945312 25.132812 Z M 7.945312 25.132812 "/>
<path style=" stroke:none;fill-rule:nonzero;fill:rgb(0%,0%,0%);fill-opacity:1;" d="M 22.296875 25.601562 C 21.859375 25.601562 21.441406 25.425781 21.019531 25.070312 C 20.503906 24.628906 19.289062 23.46875 19.203125 22.25 C 19.167969 21.777344 19.3125 21.34375 19.621094 20.996094 C 20.125 20.425781 20.671875 19.835938 21.304688 19.484375 C 22.109375 19.035156 22.894531 19.0625 23.636719 19.566406 C 24.730469 20.304688 25.429688 21.230469 25.550781 22.109375 C 25.628906 22.675781 25.46875 23.214844 25.085938 23.664062 C 23.988281 24.957031 23.195312 25.535156 22.429688 25.597656 C 22.382812 25.601562 22.339844 25.601562 22.296875 25.601562 Z M 22.425781 20.117188 C 21.796875 20.117188 21.15625 20.679688 20.328125 21.621094 C 20.183594 21.78125 20.125 21.957031 20.140625 22.183594 C 20.183594 22.773438 20.753906 23.605469 21.628906 24.351562 C 21.976562 24.648438 22.199219 24.671875 22.355469 24.660156 C 22.828125 24.621094 23.484375 24.09375 24.367188 23.054688 C 24.578125 22.808594 24.660156 22.542969 24.617188 22.238281 C 24.535156 21.640625 23.957031 20.917969 23.113281 20.347656 C 22.878906 20.191406 22.652344 20.117188 22.425781 20.117188 Z M 22.425781 20.117188 "/>
<path style=" stroke:none;fill-rule:nonzero;fill:rgb(0%,0%,0%);fill-opacity:1;" d="M 9.851562 11.152344 C 9.339844 11.152344 8.867188 10.960938 8.480469 10.585938 C 7.261719 9.410156 6.734375 8.578125 6.722656 7.8125 C 6.714844 7.324219 6.914062 6.875 7.339844 6.4375 C 7.8125 5.949219 9.046875 4.8125 10.269531 4.804688 C 10.738281 4.800781 11.164062 4.972656 11.492188 5.300781 C 12.03125 5.84375 12.582031 6.425781 12.894531 7.078125 C 13.289062 7.910156 13.210938 8.691406 12.664062 9.402344 C 11.859375 10.445312 10.886719 11.082031 10.003906 11.148438 C 9.953125 11.152344 9.902344 11.152344 9.851562 11.152344 Z M 9.136719 9.910156 C 9.367188 10.132812 9.628906 10.230469 9.933594 10.210938 C 10.535156 10.164062 11.292969 9.636719 11.917969 8.828125 C 12.5625 7.992188 12.03125 7.175781 10.824219 5.964844 C 10.671875 5.816406 10.5 5.746094 10.273438 5.746094 C 9.683594 5.75 8.816406 6.265625 8.015625 7.09375 C 7.699219 7.417969 7.660156 7.640625 7.664062 7.796875 C 7.671875 8.269531 8.152344 8.960938 9.136719 9.910156 Z M 9.136719 9.910156 "/>
<path style=" stroke:none;fill-rule:nonzero;fill:rgb(0%,0%,0%);fill-opacity:1;" d="M 15.207031 26.441406 C 14.425781 26.441406 13.792969 25.808594 13.792969 25.027344 C 13.792969 24.25 14.425781 23.617188 15.207031 23.617188 C 15.984375 23.617188 16.617188 24.25 16.617188 25.027344 C 16.617188 25.808594 15.984375 26.441406 15.207031 26.441406 Z M 15.207031 24.558594 C 14.945312 24.558594 14.734375 24.769531 14.734375 25.027344 C 14.734375 25.289062 14.945312 25.5 15.207031 25.5 C 15.464844 25.5 15.675781 25.289062 15.675781 25.027344 C 15.675781 24.769531 15.464844 24.558594 15.207031 24.558594 Z M 15.207031 24.558594 "/>
<path style=" stroke:none;fill-rule:nonzero;fill:rgb(0%,0%,0%);fill-opacity:1;" d="M 26.25 18.351562 C 25.472656 18.351562 24.839844 17.71875 24.839844 16.9375 C 24.839844 16.160156 25.472656 15.527344 26.25 15.527344 C 27.027344 15.527344 27.664062 16.160156 27.664062 16.9375 C 27.664062 17.71875 27.027344 18.351562 26.25 18.351562 Z M 26.25 16.46875 C 25.992188 16.46875 25.78125 16.679688 25.78125 16.9375 C 25.78125 17.199219 25.992188 17.410156 26.25 17.410156 C 26.511719 17.410156 26.722656 17.199219 26.722656 16.9375 C 26.722656 16.679688 26.511719 16.46875 26.25 16.46875 Z M 26.25 16.46875 "/>
<path style=" stroke:none;fill-rule:nonzero;fill:rgb(0%,0%,0%);fill-opacity:1;" d="M 4.878906 17.078125 C 4.101562 17.078125 3.46875 16.441406 3.46875 15.664062 C 3.46875 14.886719 4.101562 14.253906 4.878906 14.253906 C 5.65625 14.253906 6.292969 14.886719 6.292969 15.664062 C 6.292969 16.441406 5.65625 17.078125 4.878906 17.078125 Z M 4.878906 15.195312 C 4.621094 15.195312 4.410156 15.40625 4.410156 15.664062 C 4.410156 15.925781 4.621094 16.136719 4.878906 16.136719 C 5.140625 16.136719 5.351562 15.925781 5.351562 15.664062 C 5.351562 15.40625 5.140625 15.195312 4.878906 15.195312 Z M 4.878906 15.195312 "/>
<path style=" stroke:none;fill-rule:nonzero;fill:rgb(0%,0%,0%);fill-opacity:1;" d="M 19.214844 7.023438 C 18.4375 7.023438 17.804688 6.390625 17.804688 5.613281 C 17.804688 4.835938 18.4375 4.203125 19.214844 4.203125 C 19.992188 4.203125 20.628906 4.835938 20.628906 5.613281 C 20.628906 6.390625 19.992188 7.023438 19.214844 7.023438 Z M 19.214844 5.140625 C 18.957031 5.140625 18.746094 5.351562 18.746094 5.613281 C 18.746094 5.871094 18.957031 6.082031 19.214844 6.082031 C 19.476562 6.082031 19.6875 5.871094 19.6875 5.613281 C 19.6875 5.351562 19.476562 5.140625 19.214844 5.140625 Z M 19.214844 5.140625 "/>
<path style=" stroke:none;fill-rule:nonzero;fill:rgb(0%,0%,0%);fill-opacity:1;" d="M 15.890625 17.410156 C 15.28125 17.410156 14.671875 17.210938 14.164062 16.816406 C 13.957031 16.660156 13.921875 16.363281 14.082031 16.15625 C 14.238281 15.953125 14.535156 15.914062 14.742188 16.074219 C 15.417969 16.597656 16.363281 16.597656 17.039062 16.074219 C 17.246094 15.914062 17.539062 15.953125 17.699219 16.15625 C 17.859375 16.363281 17.820312 16.660156 17.617188 16.816406 C 17.109375 17.210938 16.5 17.410156 15.890625 17.410156 Z M 15.890625 17.410156 "/>
<path style=" stroke:none;fill-rule:nonzero;fill:rgb(0%,0%,0%);fill-opacity:1;" d="M 16 32 C 11.726562 32 7.707031 30.335938 4.6875 27.3125 C 1.664062 24.292969 0 20.273438 0 16 C 0 11.726562 1.664062 7.707031 4.6875 4.6875 C 7.707031 1.664062 11.726562 0 16 0 C 20.273438 0 24.292969 1.664062 27.3125 4.6875 C 30.335938 7.707031 32 11.726562 32 16 C 32 20.273438 30.335938 24.292969 27.3125 27.3125 C 24.292969 30.335938 20.273438 32 16 32 Z M 16 0.941406 C 7.695312 0.941406 0.941406 7.695312 0.941406 16 C 0.941406 24.304688 7.695312 31.058594 16 31.058594 C 24.304688 31.058594 31.058594 24.304688 31.058594 16 C 31.058594 7.695312 24.304688 0.941406 16 0.941406 Z M 16 0.941406 "/>
</g>
</svg>
